<svg width="66" height="66" viewBox="0 0 66 66" fill="none" xmlns="http://www.w3.org/2000/svg">
<rect x="0.644531" y="0.776367" width="64.4717" height="64.8735" fill="#FFC600"/>
<path d="M48.0597 27.7712H17.7003C17.4452 27.7712 17.2383 27.5642 17.2383 27.3092V19.3892C17.2383 19.1342 17.4452 18.9272 17.7003 18.9272H48.0597C48.3147 18.9272 48.5217 19.1342 48.5217 19.3892V27.3092C48.5217 27.5642 48.3147 27.7712 48.0597 27.7712ZM18.1619 26.8472H47.5975V19.8511H18.1619V26.8472Z" fill="#1F1919"/>
<path fill-rule="evenodd" clip-rule="evenodd" d="M48.0593 27.8919H17.6999C17.3782 27.8919 17.1172 27.6309 17.1172 27.3092V19.3893C17.1172 19.0676 17.3782 18.8066 17.6999 18.8066H48.0593C48.381 18.8066 48.642 19.0676 48.642 19.3893V27.3092C48.642 27.6309 48.381 27.8919 48.0593 27.8919ZM47.5971 26.8473H18.1615V19.8512H47.5971V26.8473ZM47.4764 19.9719H18.2822V26.7266H47.4764V19.9719ZM17.6999 27.7712H48.0593C48.3143 27.7712 48.5213 27.5643 48.5213 27.3092V19.3893C48.5213 19.1343 48.3143 18.9273 48.0593 18.9273H17.6999C17.4448 18.9273 17.2379 19.1343 17.2379 19.3893V27.3092C17.2379 27.5643 17.4448 27.7712 17.6999 27.7712Z" fill="#1F1919"/>
<path d="M25.6209 47.8971C25.5266 47.8971 25.4328 47.8684 25.3531 47.8115C21.9254 45.3736 19.8789 41.4098 19.8789 37.2094V27.3096C19.8789 27.0546 20.0859 26.8477 20.3409 26.8477H45.4204C45.6754 26.8477 45.8824 27.0546 45.8824 27.3096V37.2094C45.8824 41.4103 43.8359 45.3737 40.4082 47.8115C40.2672 47.9117 40.0822 47.9249 39.9287 47.8457C39.775 47.7665 39.6786 47.6079 39.6786 47.4351L39.6784 41.8292C39.6784 38.0809 36.6288 35.031 32.8802 35.031C29.1317 35.031 26.0821 38.0807 26.0821 41.8292V47.4351C26.0821 47.6079 25.9857 47.7665 25.832 47.8457C25.765 47.8799 25.6924 47.8971 25.6201 47.8971L25.6209 47.8971ZM32.8806 34.1071C37.1385 34.1071 40.6027 37.5711 40.6027 41.8291V46.4962C43.3459 44.211 44.9586 40.8035 44.9586 37.2089V27.7708H20.803V37.2089C20.803 40.8033 22.416 44.211 25.159 46.4962V41.8291C25.159 37.5712 28.623 34.1071 32.881 34.1071H32.8806Z" fill="#1F1919"/>
<path d="M25.2827 47.91L25.2826 47.9099L25.3527 47.8116L25.2827 47.91Z" fill="#1F1919"/>
<path d="M32.8782 50.2113C30.1607 50.2113 27.5577 49.3816 25.3505 47.8118C25.2286 47.725 25.1562 47.5848 25.1562 47.4353V41.8294C25.1562 37.5716 28.6203 34.1074 32.8783 34.1074C37.1362 34.1074 40.6003 37.5714 40.6003 41.8294V47.4353C40.6003 47.5848 40.5279 47.7253 40.406 47.8118C38.1988 49.3816 35.5958 50.2113 32.8783 50.2113H32.8782ZM26.08 47.1942C28.0876 48.5644 30.4329 49.2874 32.8782 49.2874C35.3234 49.2874 37.6686 48.5645 39.6763 47.1942V41.8294C39.6763 38.0812 36.6267 35.0313 32.8782 35.0313C29.1297 35.0313 26.08 38.0809 26.08 41.8294V47.1942Z" fill="#1F1919"/>
<path fill-rule="evenodd" clip-rule="evenodd" d="M25.2801 47.9102L25.2801 47.9102C25.1265 47.8008 25.0352 47.624 25.0352 47.4354V41.8295C25.0352 37.505 28.5532 33.9868 32.8778 33.9868C37.2025 33.9868 40.7205 37.5049 40.7205 41.8295V47.4354C40.7205 47.6238 40.6294 47.801 40.4756 47.9102C38.2479 49.4947 35.6204 50.3321 32.8779 50.3321H32.8778C30.1353 50.3321 27.5078 49.4947 25.2801 47.9102ZM40.4056 47.8119C40.5275 47.7254 40.5998 47.5849 40.5998 47.4354V41.8295C40.5998 37.5715 37.1358 34.1075 32.8778 34.1075C28.6198 34.1075 25.1558 37.5716 25.1558 41.8295V47.4354C25.1558 47.5849 25.2282 47.7251 25.3501 47.8119C27.5573 49.3817 30.1603 50.2114 32.8778 50.2114H32.8779C35.5954 50.2114 38.1984 49.3817 40.4056 47.8119ZM26.2003 47.1304C28.176 48.4636 30.478 49.1668 32.8778 49.1668C35.2775 49.1668 37.5793 48.4637 39.5552 47.1304V41.8295C39.5552 38.1479 36.5596 35.152 32.8778 35.152C29.1959 35.152 26.2003 38.1477 26.2003 41.8295V47.1304ZM26.0796 47.1943V41.8295C26.0796 38.081 29.1292 35.0314 32.8778 35.0314C36.6263 35.0314 39.6759 38.0812 39.6759 41.8295V47.1943C37.6682 48.5646 35.323 49.2875 32.8778 49.2875C30.4325 49.2875 28.0872 48.5645 26.0796 47.1943Z" fill="#1F1919"/>
<path d="M32.8792 47.5713C30.8049 47.5713 29.1172 45.8836 29.1172 43.8093C29.1172 41.7351 30.8049 40.0474 32.8792 40.0474C34.9534 40.0474 36.6411 41.7351 36.6411 43.8093C36.6411 45.8836 34.9534 47.5713 32.8792 47.5713ZM32.8792 40.9711C31.3142 40.9711 30.0412 42.2442 30.0412 43.809C30.0412 45.3739 31.3143 46.647 32.8792 46.647C34.444 46.647 35.7171 45.3739 35.7171 43.809C35.7171 42.2442 34.444 40.9711 32.8792 40.9711Z" fill="#1F1919"/>
<path fill-rule="evenodd" clip-rule="evenodd" d="M32.8788 47.6921C30.7378 47.6921 28.9961 45.9503 28.9961 43.8094C28.9961 41.6685 30.7378 39.9268 32.8788 39.9268C35.0197 39.9268 36.7614 41.6685 36.7614 43.8094C36.7614 45.9503 35.0197 47.6921 32.8788 47.6921ZM32.8788 41.0918C31.3805 41.0918 30.1615 42.3109 30.1615 43.8091C30.1615 45.3073 31.3806 46.5264 32.8788 46.5264C34.377 46.5264 35.596 45.3073 35.596 43.8091C35.596 42.3109 34.377 41.0918 32.8788 41.0918ZM29.1168 43.8094C29.1168 45.8837 30.8045 47.5714 32.8788 47.5714C34.953 47.5714 36.6407 45.8837 36.6407 43.8094C36.6407 41.7352 34.953 40.0474 32.8788 40.0474C30.8045 40.0474 29.1168 41.7352 29.1168 43.8094ZM30.0408 43.8091C30.0408 42.2443 31.3138 40.9712 32.8788 40.9712C34.4436 40.9712 35.7167 42.2443 35.7167 43.8091C35.7167 45.374 34.4436 46.6471 32.8788 46.6471C31.3139 46.6471 30.0408 45.374 30.0408 43.8091Z" fill="#1F1919"/>
</svg>
