<svg width="19" height="19" viewBox="0 0 19 19" fill="none" xmlns="http://www.w3.org/2000/svg">
<rect x="0.570312" y="0.587402" width="17.7936" height="17.7936" fill="#FFC600"/>
<path d="M15.2074 9.38347C15.2074 6.22517 12.6233 3.64111 9.46501 3.64111C6.30672 3.64111 3.72266 6.22517 3.72266 9.38347C3.72266 12.2546 5.80426 14.6234 8.53188 15.054V11.0344H7.09629V9.38347H8.53188V8.09144C8.53188 6.65585 9.39323 5.86628 10.6853 5.86628C11.3313 5.86628 11.9773 6.00983 11.9773 6.00983V7.44542H11.2595C10.5417 7.44542 10.3264 7.8761 10.3264 8.30678V9.38347H11.9055L11.6184 11.0344H10.2546V15.1258C13.1258 14.6951 15.2074 12.2546 15.2074 9.38347Z" fill="#1F1919"/>
</svg>
