<svg width="19" height="19" viewBox="0 0 19 19" fill="none" xmlns="http://www.w3.org/2000/svg">
<rect x="0.742188" y="0.587402" width="17.7936" height="17.7936" fill="#FFC600"/>
<path d="M9.64129 4.50198C11.2204 4.50198 11.4358 4.50198 12.0818 4.50198C12.656 4.50198 12.9431 4.64554 13.1585 4.71732C13.4456 4.86088 13.6609 4.93266 13.8763 5.148C14.0916 5.36334 14.2352 5.57868 14.307 5.86579C14.3787 6.08113 14.4505 6.36825 14.5223 6.94249C14.5223 7.5885 14.5223 7.73206 14.5223 9.38299C14.5223 11.0339 14.5223 11.1775 14.5223 11.8235C14.5223 12.3977 14.3787 12.6848 14.307 12.9002C14.1634 13.1873 14.0916 13.4026 13.8763 13.618C13.6609 13.8333 13.4456 13.9769 13.1585 14.0487C12.9431 14.1204 12.656 14.1922 12.0818 14.264C11.4358 14.264 11.2922 14.264 9.64129 14.264C7.99036 14.264 7.8468 14.264 7.20079 14.264C6.62655 14.264 6.33943 14.1204 6.1241 14.0487C5.83698 13.9051 5.62164 13.8333 5.4063 13.618C5.19096 13.4026 5.0474 13.1873 4.97562 12.9002C4.90384 12.6848 4.83206 12.3977 4.76029 11.8235C4.76029 11.1775 4.76029 11.0339 4.76029 9.38299C4.76029 7.73206 4.76029 7.5885 4.76029 6.94249C4.76029 6.36825 4.90384 6.08113 4.97562 5.86579C5.11918 5.57868 5.19096 5.36334 5.4063 5.148C5.62164 4.93266 5.83698 4.7891 6.1241 4.71732C6.33943 4.64554 6.62655 4.57376 7.20079 4.50198C7.8468 4.50198 8.06214 4.50198 9.64129 4.50198ZM9.64129 3.42529C7.99036 3.42529 7.8468 3.42529 7.20079 3.42529C6.55477 3.42529 6.1241 3.56885 5.7652 3.71241C5.4063 3.85597 5.0474 4.07131 4.68851 4.43021C4.32961 4.7891 4.18605 5.07622 3.97071 5.5069C3.82715 5.86579 3.75537 6.29647 3.68359 6.94249C3.68359 7.5885 3.68359 7.80384 3.68359 9.38299C3.68359 11.0339 3.68359 11.1775 3.68359 11.8235C3.68359 12.4695 3.82715 12.9002 3.97071 13.2591C4.11427 13.618 4.32961 13.9769 4.68851 14.3358C5.0474 14.6947 5.33452 14.8382 5.7652 15.0536C6.1241 15.1971 6.55477 15.2689 7.20079 15.3407C7.8468 15.3407 8.06214 15.3407 9.64129 15.3407C11.2204 15.3407 11.4358 15.3407 12.0818 15.3407C12.7278 15.3407 13.1585 15.1971 13.5174 15.0536C13.8763 14.91 14.2352 14.6947 14.5941 14.3358C14.953 13.9769 15.0965 13.6898 15.3119 13.2591C15.4554 12.9002 15.5272 12.4695 15.599 11.8235C15.599 11.1775 15.599 10.9621 15.599 9.38299C15.599 7.80384 15.599 7.5885 15.599 6.94249C15.599 6.29647 15.4554 5.86579 15.3119 5.5069C15.1683 5.148 14.953 4.7891 14.5941 4.43021C14.2352 4.07131 13.9481 3.92775 13.5174 3.71241C13.1585 3.56885 12.7278 3.49707 12.0818 3.42529C11.4358 3.42529 11.2922 3.42529 9.64129 3.42529Z" fill="#1F1919"/>
<path d="M9.64129 6.29647C7.91858 6.29647 6.55477 7.66028 6.55477 9.38299C6.55477 11.1057 7.91858 12.4695 9.64129 12.4695C11.364 12.4695 12.7278 11.1057 12.7278 9.38299C12.7278 7.66028 11.364 6.29647 9.64129 6.29647ZM9.64129 11.3928C8.5646 11.3928 7.63146 10.5315 7.63146 9.38299C7.63146 8.3063 8.49282 7.37316 9.64129 7.37316C10.718 7.37316 11.6511 8.23452 11.6511 9.38299C11.6511 10.4597 10.718 11.3928 9.64129 11.3928Z" fill="#1F1919"/>
<path d="M12.7996 6.94249C13.196 6.94249 13.5174 6.62112 13.5174 6.22469C13.5174 5.82826 13.196 5.5069 12.7996 5.5069C12.4032 5.5069 12.0818 5.82826 12.0818 6.22469C12.0818 6.62112 12.4032 6.94249 12.7996 6.94249Z" fill="#1F1919"/>
</svg>
