<svg width="47" height="47" viewBox="0 0 47 47" fill="none" xmlns="http://www.w3.org/2000/svg">
<rect x="0.761719" y="0.304199" width="46.2439" height="46.2439" fill="#FFC600"/>
<path d="M14.0221 22.2243H23.5268C24.1276 22.2243 24.6192 21.7327 24.6192 21.1319V11.682C24.6192 11.0812 24.1276 10.5895 23.5268 10.5895L14.0221 10.5894C13.4213 10.5894 12.9297 11.081 12.9297 11.6818V21.1865C12.9297 21.7328 13.4213 22.2244 14.0221 22.2244V22.2243Z" fill="black"/>
<path d="M29.5921 13.2112H32.3779C32.9787 13.2112 33.4703 12.7196 33.4703 12.1188C33.4703 11.518 32.9787 11.0264 32.3779 11.0264H28.0625V19.493H36.0923L29.5921 13.2112Z" fill="black"/>
<path d="M28.0625 21.6782V28.288C29.1004 27.3047 30.5206 26.6492 32.1047 26.6492C33.962 26.6492 35.6552 27.5233 36.7478 28.8888V21.6783L28.0625 21.6782Z" fill="black"/>
<path d="M32.0504 28.834C29.9747 28.834 28.3359 30.5274 28.3359 32.5484C28.3359 34.6241 30.0294 36.2628 32.0504 36.2628C34.126 36.2628 35.7648 34.5694 35.7648 32.5484C35.8195 30.4727 34.126 28.834 32.0504 28.834Z" fill="black"/>
<path d="M11.0196 24.7373V30.9645C11.0196 31.1283 11.0743 31.2922 11.1288 31.4014C11.6751 28.7247 14.0239 26.7038 16.8644 26.7038C19.9233 26.7038 22.4361 29.0528 22.7091 32.0569H25.8774L25.8776 23.645H12.1121C11.5112 23.645 11.0195 24.1366 11.0195 24.7375L11.0196 24.7373Z" fill="black"/>
<path d="M16.8668 28.834C14.7911 28.834 13.1523 30.5274 13.1523 32.5484C13.1523 34.6241 14.8458 36.2628 16.8668 36.2628C18.8879 36.2628 20.5812 34.5694 20.5812 32.5484C20.5812 30.4727 18.9424 28.834 16.8668 28.834V28.834Z" fill="black"/>
</svg>
