<svg width="47" height="47" viewBox="0 0 47 47" fill="none" xmlns="http://www.w3.org/2000/svg">
<rect x="0.0273438" y="0.304199" width="46.2439" height="46.2439" fill="#FFC600"/>
<path d="M34.0588 8.25H10.2935C8.48524 8.25 7 9.73524 7 11.5435V35.3083C7 37.1165 8.48524 38.6018 10.2935 38.6018H34.0583C35.8665 38.6018 37.3518 37.1165 37.3518 35.3083L37.352 11.5435C37.352 9.73546 35.8665 8.25 34.0585 8.25H34.0588ZM11.7144 17.5493L15.2663 13.9974C15.7185 13.5453 16.5578 13.5453 17.0746 13.9974L20.6265 17.5493C21.1431 18.0659 21.1431 18.8408 20.6265 19.3576C20.1099 19.8742 19.335 19.8742 18.8182 19.3576L17.3974 17.9368V27.2361C17.3974 27.9464 16.8162 28.5276 16.1059 28.5276C15.3956 28.5276 14.8144 27.9464 14.8144 27.2361L14.8142 17.9368L13.3934 19.3576C13.135 19.616 12.8122 19.7451 12.4894 19.7451C12.1666 19.7451 11.8435 19.616 11.5853 19.3576C11.1979 18.841 11.1979 18.0661 11.7144 17.5493ZM31.734 34.4691H12.6183C11.9081 34.4691 11.3268 33.8879 11.3268 33.1776C11.3268 32.4673 11.9081 31.8861 12.6183 31.8861H31.7334C32.4437 31.8861 33.0249 32.4673 33.0249 33.1776C33.0252 33.8879 32.444 34.4691 31.7337 34.4691H31.734ZM32.638 19.3577C32.1215 19.8743 31.3465 19.8743 30.8297 19.3577L29.4089 17.9369V27.2362C29.4089 27.9465 28.8277 28.5277 28.1174 28.5277C27.4072 28.5277 26.8259 27.9465 26.8259 27.2362V17.9369L25.4051 19.3577C25.1468 19.6161 24.8239 19.7452 24.5011 19.7452C24.1783 19.7452 23.8553 19.6161 23.5971 19.3577C23.0805 18.8412 23.0805 18.0662 23.5971 17.5494L27.149 13.9975C27.6011 13.5454 28.4405 13.5454 28.9573 13.9975L32.5092 17.5494C33.1546 18.0662 33.1546 18.8412 32.638 19.3577Z" fill="black"/>
</svg>
