<svg width="47" height="47" viewBox="0 0 47 47" fill="none" xmlns="http://www.w3.org/2000/svg">
<rect x="0.609375" y="0.304199" width="46.2439" height="46.2439" fill="#FFC600"/>
<path d="M40.9902 16.949L30.7656 12.8872V33.8958L40.9896 29.9042C41.5498 29.6941 41.83 29.2038 41.83 28.6437L41.8302 18.2096C41.8302 17.6492 41.4799 17.0891 40.9899 16.9491L40.9902 16.949Z" fill="black"/>
<path d="M8.91797 13.8671V32.9849C8.91797 33.7551 9.54823 34.3854 10.3185 34.3854H17.1115V12.4668H10.3191C9.54859 12.4668 8.91833 13.0971 8.91833 13.8673L8.91797 13.8671ZM12.9797 22.9008C12.9797 22.1305 13.61 21.5003 14.3802 21.5003C15.1504 21.5003 15.7807 22.1305 15.7807 22.9008V23.8112C15.7807 24.5815 15.1504 25.2117 14.3802 25.2117C13.61 25.2117 12.9797 24.5815 12.9797 23.8112V22.9008Z" fill="black"/>
<path d="M19.8438 34.3158H28.0371V12.4668H19.8438V34.3158ZM21.1744 22.9009C21.1744 22.1306 21.8046 21.5004 22.5749 21.5004C23.3451 21.5004 23.9754 22.1306 23.9754 22.9009V23.8113C23.9754 24.5816 23.3451 25.2118 22.5749 25.2118C21.8046 25.2118 21.1744 24.5816 21.1744 23.8113V22.9009Z" fill="black"/>
</svg>
